<?xml version="1.0" encoding="utf-8"?>
<!-- Generator: Adobe Illustrator 19.1.0, SVG Export Plug-In . SVG Version: 6.00 Build 0)  -->
<svg version="1.1" id="Layer_1" xmlns="http://www.w3.org/2000/svg" xmlns:xlink="http://www.w3.org/1999/xlink" x="0px" y="0px"
	 viewBox="0 0 300 300" style="enable-background:new 0 0 300 300;" xml:space="preserve">
<style type="text/css">
	.st0{fill:#0000FF;}
</style>
<g>
	<path class="st0" d="M81,283.6c-2.7-0.8-6.2-2.3-4.8-5.1c3.3-7.1,2.5-15.2,7.4-21.9c3.6-4.9,7.3-9.9,10.4-15.2
		c4-6.8,4.8-14.8,8.5-21.2c4.7-8,5.6-17.2,10.1-25.2c2.3-4.1,1.3-7.2-4.5-6.8c-3.7,0.2-6.9-1.7-10-3.4c-4.3-2.3-8.8-4.2-13.6-5.5
		c-3.2-0.9-5-0.4-6.1,2.9c-1.5,4.4-3.4,8.7-5,13.1c-7.5,21.5-16.1,42.3-31.3,60.1c-2.9,3.5-0.7,11.4-0.8,17.2c0,0.3,0.6,0.7,1,0.8
		c5.7,2.2,9.7,7.9,16.6,7.8c3.7,0,7.3,1.4,7.5,6c0.2,5-4.3,4.7-7.3,5.1c-18.5,2.4-37-1-55.5-0.9c-2.1,0-4.6-0.7-3.5-3.4
		c2.8-7.4,1.8-16.2,8.7-22c2-1.7,2.9-3.8,1.9-6.5c-0.7-2,0.1-4.1,1.2-5.8c8-12.8,12.7-26.8,15-41.7c1.4-9.1,7.9-15.9,11-24.2
		c0.9-2.4,1.9-4.8-0.6-6.5c-7.3-4.9-11.9-12.6-18.6-18.2c-15.2-12.9-18.1-35.9-7-52.3c5.5-8.1,11.3-15.9,20.9-20.4
		c5.9-2.8,10.4-9,16.4-11.3C65.3,73,80.3,64,96.9,58.6c5.1-1.6,10.3-3.5,14.1-7.4c3.2-3.2,6.6-4.5,10.9-3c5.8,2,8.7-4.2,13.7-4.6
		c-2-5.3,3.2-8.7,3.4-13.6c0.8-14.2,8.1-21.5,22.1-23c12.3-1.3,23.3,5.6,24.6,16.4c0.7,5.9,3.1,8.7,8.4,10.1
		c1.9,0.5,4.6,1.3,4.3,3.5c-0.5,2.8-3.5,1.9-5.6,2c-1.5,0-3.1-0.1-4.6-0.5c-2.5-0.5-3.6,0.9-3.3,2.8c1.3,8.4-5,14-7.8,20.9
		c-1.4,3.5-4.1,5.7-8,6.3c-4.1,0.6-6.9,2.1-3.9,6.9c1.4,2.2,1.2,4.9,0.5,7.2c-1.6,4.9,0.8,5,4.5,4.6c7.1-0.8,14.1-2,21-3.7
		c6.2-1.5,8.5-4.8,6.7-11c-0.6-2,0.3-3.4,1.4-4.9C211,52.2,226.5,44.6,246.1,46c6.2,0.4,11.3,2.9,15.3,8.3c7.1,9.7,6.3,20.5,5,31.2
		c-1.3,11.1-3.6,12.4-14.8,11.3c-3.3-0.3-6.5-1.3-9.8-2c-20.6-4.9-40.4-3.7-58.8,8c-4.2,2.6-8.5,5.1-13.3,6.1
		c-6.6,1.4-13.1,2.4-14.4,10.9c-0.2,1.5-1.9,3.2-3.4,4c-4.3,2.6-3.9,5.1-0.6,8.1c1.7,1.5,3.3,3,4.7,4.7c7.7,9,19.8,12.3,27.1,22
		c1.9,2.5,5.6,5.6,3.6,7.7c-3.2,3.4-4.6,8.2-8.1,11c-3.1,2.4-4.6-0.3-5.2-3.3c-1.3,2.1-3,6.2-5.3,2.2c-2.8-4.8-8.3-7.3-10.4-11.9
		c-5.2-11-16.7-13.6-24.9-20.3c-1.1-0.9-2.5-1.6-3.5-0.2c-1.5,2.1,0.9,2.4,1.9,3.1c7.2,4.8,14.6,9.5,20.8,15.7
		c10,10.1,10.9,12.5,5.2,25.8c-7.8,18.2-15.9,36.3-24.1,54.4c-2.3,5.1-3.3,11.3-9.4,14c-1.3,0.6-0.9,1.9-0.7,2.9
		c0.9,4.9,1.7,9.5,8,10.6c3.7,0.6,7.2,2.4,10.7,3.8c3.5,1.4,6.6,4,6.3,7.8c-0.3,4.1-4.7,3.6-7.5,3.8c-6.2,0.4-12.5,0.2-18.8-0.1
		c-6.9-0.3-13.8-0.9-20.7-1.3C94.3,284,87.6,285.6,81,283.6z M256,74.5c0.6,2.4-1.1,5.5,2,7c0.3,0.1,1.4-0.6,1.4-0.8
		c-0.2-3.1,2-7-3.2-9.6C256.1,72.8,255.8,73.7,256,74.5z"/>
	<path class="st0" d="M282.2,93c0,5.2,3.7,9,8.7,9.1c5.1,0.1,9.2-4.2,9.1-9.5c-0.1-4.9-4.2-8.9-9-8.8
		C286.1,83.9,282.2,87.9,282.2,93z"/>
</g>
</svg>
