<?xml version="1.0" encoding="utf-8"?>
<!-- Generator: Adobe Illustrator 19.1.0, SVG Export Plug-In . SVG Version: 6.00 Build 0)  -->
<svg version="1.1" id="Layer_1" xmlns="http://www.w3.org/2000/svg" xmlns:xlink="http://www.w3.org/1999/xlink" x="0px" y="0px"
	 viewBox="0 0 300 300" style="enable-background:new 0 0 300 300;" xml:space="preserve">
<style type="text/css">
	.st0{fill:#0000FF;}
</style>
<g>
	<path class="st0" d="M164.6,3.3c3.5,1.8,3.9,4,1.7,7.3c-9,13.3-17.1,27.2-28,39c-0.2,0.2-0.1,0.6-0.2,1c2.4-0.3,4.8-1,7.1-0.9
		c8.1,0.3,14.4,2.9,16,10.8c0.4,1.7,1,3.8,2.2,4.7c7.5,5.4,2.4,10.7-0.2,15.7c-1,1.9,0,2.5,0.9,3c11.1,6.6,15,17.4,18.5,29.1
		c3.3,10.9,7,21.5,6.5,33.2c-0.2,3.3,1.3,6.6,2.8,9.6c5.7,11.1,7.8,22.9,7.5,35.3c-0.2,8-1,16,0.8,24c0.6,2.6,1.6,4.9,3.3,6.8
		c5.7,6.2,9.1,13.5,11.3,21.5c0.5,1.7,1.1,3.3,1.8,5c5.8,14,13.3,27.3,16.4,42.3c0,7.7,0,7.7-7.7,7.7c-1.9,0-3.9,0-5.8,0
		c-3-1.7-6.3-0.6-9.4-1.3c-3.4-0.7-4.5-2.6-1.9-4.7c6.1-5,3.6-9.9,1-15.3c-7.3-15-16.4-29-24.9-43.4c-2.7-4.6-4.5-9.5-6.2-14.5
		c-2.2-6.4-4.9-12.5-9.8-17.5c-3.8-3.9-6-3.7-9.6,0.2c-8.4,9.3-16.6,18.8-25.7,27.4c-3.3,3.1-6,6.7-8.1,10.7
		c-8.7,16.8-18.2,33.1-26.3,50.2c-1.5,3.2-3.5,4.7-7.1,4.2c-5.5-0.7-11.2,0.9-16.7-0.9c0-1.6,0-3.2,0-4.8c4.9-2.6,7.7-6.4,10.1-11.7
		c6.5-14.3,11.7-29.1,18-43.4c3.1-7,8.9-12.4,12.2-19.5c5.7-12.3,12.1-24.4,18.1-36.6c2.1-4.2,4.1-8.3,6-12.5c1.5-3.2,2-6.2-0.7-9.3
		c-2.1-2.4-2.2-5.6-1.8-8.7c0.9-6.4-1.5-10.9-7.5-12.3c-11.7-2.8-20.5-10.2-29.4-17.6c-2.2-1.8-4.1-2.7-6.9-1.5
		c-3.1,1.4-5.7,0.3-7.7-2.1c-2.2-2.6,0.3-4.5,1.3-6.4c3.5-6.8,9.1-12.4,12.5-19.3c0.4-0.8,1.3-1.8,2.1-1.8
		c6.6-0.6,8.5-6.2,11.3-10.6c7-11.1,13.2-22.7,20.3-33.8c8.7-13.6,18-26.8,27-40.2c0.6,0,1.3,0,1.9,0C162.7,2.1,163.6,2.8,164.6,3.3
		z M128.1,61.5c-6.6,8.3-12.6,16.6-17.8,25.5c-0.4,0.6-0.7,1.7-0.5,2.2c1.8,3.4,2.1,6.9,1.3,10.7c-0.4,1.8,1,2.6,2.3,1.8
		c2.4-1.5,6-2.5,6.7-5.1c1.7-6.8,7-9.5,12.2-12.7c0.4-0.2,0.7-0.6,1.1-1C128.5,76.7,129.2,69.1,128.1,61.5z"/>
</g>
</svg>
